<svg width="100" height="20" viewBox="0 0 100 20" fill="none" xmlns="http://www.w3.org/2000/svg">
<path d="M10.0003 14.8083L15.1503 17.9167L13.7837 12.0583L18.3337 8.11666L12.342 7.60833L10.0003 2.08333L7.65866 7.60833L1.66699 8.11666L6.21699 12.0583L4.85033 17.9167L10.0003 14.8083Z" fill="#C2C7CF"/>
<path d="M30.0003 14.8083L35.1503 17.9167L33.7837 12.0583L38.3337 8.11666L32.342 7.60833L30.0003 2.08333L27.6587 7.60833L21.667 8.11666L26.217 12.0583L24.8503 17.9167L30.0003 14.8083Z" fill="#C2C7CF"/>
<path d="M50.0003 14.8083L55.1503 17.9167L53.7837 12.0583L58.3337 8.11666L52.342 7.60833L50.0003 2.08333L47.6587 7.60833L41.667 8.11666L46.217 12.0583L44.8503 17.9167L50.0003 14.8083Z" fill="#C2C7CF"/>
<path d="M70.0003 14.8083L75.1503 17.9167L73.7837 12.0583L78.3337 8.11666L72.342 7.60833L70.0003 2.08333L67.6587 7.60833L61.667 8.11666L66.217 12.0583L64.8503 17.9167L70.0003 14.8083Z" fill="#C2C7CF"/>
<path d="M98.3337 8.11666L92.342 7.59999L90.0003 2.08333L87.6587 7.60833L81.667 8.11666L86.217 12.0583L84.8503 17.9167L90.0003 14.8083L95.1503 17.9167L93.792 12.0583L98.3337 8.11666ZM90.0003 13.25L86.867 15.1417L87.7003 11.575L84.9337 9.17499L88.5837 8.85833L90.0003 5.49999L91.4253 8.86666L95.0753 9.18333L92.3087 11.5833L93.142 15.15L90.0003 13.25Z" fill="#C2C7CF"/>
</svg>
