<svg width="18" height="18" viewBox="0 0 18 18" fill="none" xmlns="http://www.w3.org/2000/svg">
<path fill-rule="evenodd" clip-rule="evenodd" d="M7.23 5.73C7.4025 5.355 7.5 4.9425 7.5 4.5C7.5 2.8425 6.1575 1.5 4.5 1.5C2.8425 1.5 1.5 2.8425 1.5 4.5C1.5 6.1575 2.8425 7.5 4.5 7.5C4.9425 7.5 5.355 7.4025 5.73 7.23L7.5 9L5.73 10.77C5.355 10.5975 4.9425 10.5 4.5 10.5C2.8425 10.5 1.5 11.8425 1.5 13.5C1.5 15.1575 2.8425 16.5 4.5 16.5C6.1575 16.5 7.5 15.1575 7.5 13.5C7.5 13.0575 7.4025 12.645 7.23 12.27L9 10.5L14.25 15.75H16.5V15L7.23 5.73ZM4.5 6C3.675 6 3 5.3325 3 4.5C3 3.6675 3.675 3 4.5 3C5.325 3 6 3.6675 6 4.5C6 5.3325 5.325 6 4.5 6ZM3 13.5C3 14.3325 3.675 15 4.5 15C5.325 15 6 14.3325 6 13.5C6 12.6675 5.325 12 4.5 12C3.675 12 3 12.6675 3 13.5ZM9 9.375C8.79 9.375 8.625 9.21 8.625 9C8.625 8.79 8.79 8.625 9 8.625C9.21 8.625 9.375 8.79 9.375 9C9.375 9.21 9.21 9.375 9 9.375ZM9.75 6.75L14.25 2.25H16.5V3L11.25 8.25L9.75 6.75Z" fill="#9CCBFB"/>
</svg>
