<svg width="25" height="24" viewBox="0 0 25 24" fill="none" xmlns="http://www.w3.org/2000/svg">
<path opacity="0.4" fill-rule="evenodd" clip-rule="evenodd" d="M13.3 2.30699C12.5584 2.10185 11.7751 2.10185 11.0336 2.30699C10.6502 2.41305 10.2575 2.61067 9.72324 2.97744C9.18119 3.34955 8.5364 3.86478 7.6353 4.58566L5.1353 6.58566C4.81185 6.84442 4.33988 6.79198 4.08112 6.46853C3.82237 6.14509 3.87481 5.67312 4.19825 5.41436L6.69825 3.41436L6.72116 3.39604C7.59437 2.69746 8.28167 2.14762 8.87431 1.74079C9.47988 1.32508 10.028 1.02885 10.6336 0.861296C11.6369 0.583751 12.6967 0.583751 13.6999 0.861296C14.3056 1.02885 14.8537 1.32508 15.4592 1.74079C16.0519 2.14762 16.7392 2.69745 17.6124 3.39602L17.6353 3.41436L20.1353 5.41436C20.4587 5.67312 20.5112 6.14509 20.2524 6.46853C19.9937 6.79198 19.5217 6.84442 19.1983 6.58566L16.6983 4.58566C15.7972 3.86478 15.1524 3.34955 14.6103 2.97744C14.076 2.61067 13.6833 2.41305 13.3 2.30699Z" fill="#E0E2E8"/>
<path fill-rule="evenodd" clip-rule="evenodd" d="M5.75241 5.13148C6.01116 5.45493 5.95872 5.9269 5.63528 6.18565L5.13528 6.58565C4.50776 7.08767 4.25543 7.29202 4.04897 7.51489C3.46859 8.1414 3.09041 8.92823 2.96375 9.77282C2.9187 10.0733 2.91675 10.3979 2.91675 11.2016V17C2.91675 19.3472 4.81954 21.25 7.16675 21.25C7.85711 21.25 8.41675 20.6904 8.41675 20V15.9999C8.41675 13.9289 10.0957 12.2499 12.1668 12.2499C14.2378 12.2499 15.9168 13.9289 15.9168 15.9999V20C15.9168 20.6904 16.4764 21.25 17.1668 21.25C19.514 21.25 21.4168 19.3472 21.4168 17V11.2016C21.4168 10.3979 21.4148 10.0733 21.3698 9.77282C21.2431 8.92823 20.8649 8.1414 20.2845 7.51489C20.0781 7.29202 19.8258 7.08767 19.1982 6.58565L18.6982 6.18565C18.3748 5.9269 18.3223 5.45493 18.5811 5.13148C18.8399 4.80804 19.3118 4.75559 19.6353 5.01435L20.1353 5.41435L20.185 5.45412C20.7474 5.904 21.0931 6.18053 21.3849 6.49551C22.1702 7.34314 22.6818 8.40768 22.8532 9.55036C22.9168 9.97496 22.9168 10.4177 22.9168 11.1378L22.9168 11.2016V17C22.9168 20.1756 20.3424 22.75 17.1668 22.75C15.648 22.75 14.4168 21.5188 14.4168 20V15.9999C14.4168 14.7573 13.4094 13.7499 12.1668 13.7499C10.9241 13.7499 9.91675 14.7573 9.91675 15.9999V20C9.91675 21.5188 8.68554 22.75 7.16675 22.75C3.99112 22.75 1.41675 20.1756 1.41675 17V11.2016C1.41675 11.1801 1.41675 11.1589 1.41675 11.1379C1.4167 10.4177 1.41667 9.97496 1.48034 9.55036C1.6517 8.40768 2.16335 7.34314 2.94858 6.49551C3.24036 6.18054 3.58607 5.90401 4.14849 5.45414C4.16489 5.44103 4.18147 5.42777 4.19823 5.41435L4.69823 5.01435C5.02168 4.75559 5.49365 4.80804 5.75241 5.13148Z" fill="#E0E2E8"/>
</svg>
