<svg width="48" height="48" viewBox="0 0 48 48" fill="none" xmlns="http://www.w3.org/2000/svg">
<g clip-path="url(#clip0_54882_223)">
<path fill-rule="evenodd" clip-rule="evenodd" d="M27.97 28.81C28.5 28.31 29.21 28 30 28C31.66 28 33 29.34 33 31C33 32.66 31.66 34 30 34C28.34 34 27 32.66 27 31C27 30.76 27.04 30.53 27.09 30.31L20.04 26.19C19.5 26.69 18.79 27 18 27C16.34 27 15 25.66 15 24C15 22.34 16.34 21 18 21C18.79 21 19.5 21.31 20.04 21.81L27.09 17.7C27.04 17.48 27 17.24 27 17C27 15.34 28.34 14 30 14C31.66 14 33 15.34 33 17C33 18.66 31.66 20 30 20C29.21 20 28.49 19.69 27.96 19.19L20.91 23.3C20.96 23.53 21 23.76 21 24C21 24.24 20.96 24.47 20.91 24.7L27.97 28.81ZM31 17C31 16.45 30.55 16 30 16C29.45 16 29 16.45 29 17C29 17.55 29.45 18 30 18C30.55 18 31 17.55 31 17ZM18 25C17.45 25 17 24.55 17 24C17 23.45 17.45 23 18 23C18.55 23 19 23.45 19 24C19 24.55 18.55 25 18 25ZM29 31C29 31.55 29.45 32 30 32C30.55 32 31 31.55 31 31C31 30.45 30.55 30 30 30C29.45 30 29 30.45 29 31Z" fill="#C2C7CF"/>
</g>
<defs>
<clipPath id="clip0_54882_223">
<rect x="4" y="4" width="40" height="40" rx="20" fill="white"/>
</clipPath>
</defs>
</svg>
