<svg width="25" height="24" viewBox="0 0 25 24" fill="none" xmlns="http://www.w3.org/2000/svg">
<path opacity="0.4" fill-rule="evenodd" clip-rule="evenodd" d="M12.833 2.75C11.0381 2.75 9.58301 4.20507 9.58301 6C9.58301 7.79493 11.0381 9.25 12.833 9.25C14.6279 9.25 16.083 7.79493 16.083 6C16.083 4.20507 14.6279 2.75 12.833 2.75ZM8.08301 6C8.08301 3.37665 10.2097 1.25 12.833 1.25C15.4564 1.25 17.583 3.37665 17.583 6C17.583 8.62335 15.4564 10.75 12.833 10.75C10.2097 10.75 8.08301 8.62335 8.08301 6Z" fill="#E0E2E8"/>
<path fill-rule="evenodd" clip-rule="evenodd" d="M4.08301 18.8C4.08301 15.7348 6.56783 13.25 9.63301 13.25H16.033C19.0982 13.25 21.583 15.7348 21.583 18.8C21.583 20.9815 19.8145 22.75 17.633 22.75H8.03301C5.85148 22.75 4.08301 20.9815 4.08301 18.8ZM9.63301 14.75C7.39625 14.75 5.58301 16.5632 5.58301 18.8C5.58301 20.1531 6.67991 21.25 8.03301 21.25H17.633C18.9861 21.25 20.083 20.1531 20.083 18.8C20.083 16.5632 18.2698 14.75 16.033 14.75H9.63301Z" fill="#E0E2E8"/>
</svg>
